<?xml version="1.0" encoding="iso-8859-1"?>
<!-- Uploaded to: SVG Repo, www.svgrepo.com, Generator: SVG Repo Mixer Tools -->
<svg fill="#000000" version="1.1" id="Layer_1" xmlns="http://www.w3.org/2000/svg" xmlns:xlink="http://www.w3.org/1999/xlink" 
	 viewBox="0 0 512 512" xml:space="preserve">
<g>
	<g>
		<path d="M503.467,17.067H8.533C3.821,17.067,0,20.883,0,25.6v136.533v136.533V435.2c0,4.717,3.821,8.533,8.533,8.533h8.533V486.4
			c0,4.717,3.821,8.533,8.533,8.533h68.267c4.713,0,8.533-3.817,8.533-8.533v-42.667h307.2V486.4c0,4.717,3.821,8.533,8.533,8.533
			H486.4c4.713,0,8.533-3.817,8.533-8.533v-42.667h8.533c4.713,0,8.533-3.817,8.533-8.533V298.667V162.133V25.6
			C512,20.883,508.179,17.067,503.467,17.067z M85.333,477.867h-51.2v-34.133h51.2V477.867z M477.867,477.867h-51.2v-34.133h51.2
			V477.867z M494.933,426.667H486.4h-68.267H93.867H25.6h-8.533V307.2h477.867V426.667z M494.933,290.133H17.067V170.667h477.867
			V290.133z M494.933,153.6H17.067V34.133h477.867V153.6z"/>
	</g>
</g>
<g>
	<g>
		<rect x="196.267" y="85.333" width="119.467" height="17.067"/>
	</g>
</g>
<g>
	<g>
		<rect x="196.267" y="221.867" width="119.467" height="17.067"/>
	</g>
</g>
<g>
	<g>
		<rect x="196.267" y="358.4" width="119.467" height="17.067"/>
	</g>
</g>
</svg>