<?xml version="1.0" encoding="iso-8859-1"?>
<!-- Uploaded to: SVG Repo, www.svgrepo.com, Generator: SVG Repo Mixer Tools -->
<svg fill="#000000" height="800px" width="800px" version="1.1" id="Layer_1" xmlns="http://www.w3.org/2000/svg" xmlns:xlink="http://www.w3.org/1999/xlink" 
	 viewBox="0 0 508 508" xml:space="preserve">
<g>
	<g>
		<path d="M132,472h-28c-2.208,0-4,1.788-4,4v28c0,2.212,1.792,4,4,4h28c2.208,0,4-1.788,4-4v-28C136,473.788,134.208,472,132,472z
			 M128,500h-20v-20h20V500z"/>
	</g>
</g>
<g>
	<g>
		<path d="M404,472h-32c-2.208,0-4,1.788-4,4v28c0,2.212,1.792,4,4,4h32c2.208,0,4-1.788,4-4v-28C408,473.788,406.208,472,404,472z
			 M400,500h-24v-20h24V500z"/>
	</g>
</g>
<g>
	<g>
		<path d="M389.08,212H119.768C107.956,212,72,212,72,254.428V476c0,2.212,1.792,4,4,4h356c2.208,0,4-1.788,4-4V254.428
			C436,216.4,409.224,212,389.08,212z M428,472H80V254.428C80,230.296,91.896,220,119.768,220H389.08
			c27.644,0,38.92,9.976,38.92,34.428V472z"/>
	</g>
</g>
<g>
	<g>
		<path d="M248,432c-2.208,0-4,1.788-4,4v20c0,2.212,1.792,4,4,4s4-1.788,4-4v-20C252,433.788,250.208,432,248,432z"/>
	</g>
</g>
<g>
	<g>
		<path d="M248,212c-2.208,0-4,1.788-4,4v196c0,2.212,1.792,4,4,4s4-1.788,4-4V216C252,213.788,250.208,212,248,212z"/>
	</g>
</g>
<g>
	<g>
		<path d="M220,328c-2.208,0-4,1.788-4,4v28c0,2.212,1.792,4,4,4s4-1.788,4-4v-28C224,329.788,222.208,328,220,328z"/>
	</g>
</g>
<g>
	<g>
		<path d="M276,328c-2.208,0-4,1.788-4,4v28c0,2.212,1.792,4,4,4s4-1.788,4-4v-28C280,329.788,278.208,328,276,328z"/>
	</g>
</g>
<g>
	<g>
		<path d="M266.392,133.24c-0.756-0.792-1.804-1.24-2.896-1.24h-27.232c-1.096,0-2.14,0.452-2.896,1.24
			c-0.752,0.792-1.152,1.856-1.1,2.948l3.752,80c0.1,2.132,1.86,3.812,3.996,3.812h19.724c2.136,0,3.896-1.68,3.996-3.812l3.756-80
			C267.544,135.096,267.144,134.032,266.392,133.24z M255.92,212h-12.088l-3.38-72H259.3L255.92,212z"/>
	</g>
</g>
<g>
	<g>
		<path d="M243.972,215.008l-0.936-19.204c-0.104-2.128-1.864-3.804-3.996-3.804H216c-2.208,0-4,1.788-4,4v20c0,2.212,1.792,4,4,4
			h24.016c0.028-0.004,0.052-0.004,0.08,0c2.212,0,4-1.788,4-4C244.096,215.656,244.052,215.328,243.972,215.008z M220,212v-12
			h15.236l0.584,12H220z"/>
	</g>
</g>
<g>
	<g>
		<path d="M280,192h-19.272c-2.136,0-3.892,1.672-3.996,3.804l-0.988,20c-0.052,1.092,0.344,2.16,1.1,2.952
			c0.752,0.796,1.8,1.244,2.896,1.244H280c2.208,0,4-1.788,4-4v-20C284,193.788,282.208,192,280,192z M276,212h-12.056l0.592-12H276
			V212z"/>
	</g>
</g>
<g>
	<g>
		<path d="M260,156h-20c-2.208,0-4,1.788-4,4c0,2.212,1.792,4,4,4h20c2.208,0,4-1.788,4-4C264,157.788,262.208,156,260,156z"/>
	</g>
</g>
<g>
	<g>
		<path d="M388,0H116c-2.208,0-4,1.788-4,4v212c0,2.212,1.792,4,4,4h272c2.208,0,4-1.788,4-4V4C392,1.788,390.208,0,388,0z M384,212
			H120V8h264V212z"/>
	</g>
</g>
<g>
	<g>
		<path d="M235.584,30.296c-1.564-1.564-4.092-1.564-5.656,0l-27.712,27.712c-1.564,1.564-1.564,4.092,0,5.656
			c0.78,0.78,1.804,1.172,2.828,1.172s2.044-0.392,2.828-1.172l27.712-27.712C237.148,34.388,237.148,31.86,235.584,30.296z"/>
	</g>
</g>
<g>
	<g>
		<path d="M192.5,73.384c-1.564-1.564-4.092-1.564-5.656,0L175.66,84.568c-1.564,1.564-1.564,4.092,0,5.656
			c0.78,0.78,1.804,1.172,2.828,1.172c1.02,0,2.044-0.392,2.828-1.172L192.5,79.04C194.064,77.476,194.064,74.948,192.5,73.384z"/>
	</g>
</g>
<g>
	<g>
		<path d="M233.492,75.732c-1.564-1.564-4.092-1.564-5.656,0l-52.176,52.176c-1.564,1.564-1.564,4.092,0,5.656
			c0.78,0.78,1.804,1.172,2.828,1.172c1.02,0,2.044-0.392,2.828-1.172l52.176-52.176C235.056,79.824,235.056,77.296,233.492,75.732z
			"/>
	</g>
</g>
<g>
	<g>
		<path d="M300.252,45.536c-1.564-1.564-4.092-1.564-5.656,0l-9.088,9.088c-1.564,1.564-1.564,4.092,0,5.656
			c0.78,0.78,1.804,1.172,2.828,1.172s2.048-0.388,2.828-1.172l9.088-9.088C301.816,49.628,301.816,47.1,300.252,45.536z"/>
	</g>
</g>
<g>
	<g>
		<path d="M269.5,76.288c-1.564-1.564-4.092-1.564-5.656,0l-25.532,25.532c-1.564,1.564-1.564,4.092,0,5.656
			c0.78,0.78,1.804,1.172,2.828,1.172s2.044-0.392,2.828-1.172L269.5,81.944C271.064,80.38,271.064,77.852,269.5,76.288z"/>
	</g>
</g>
</svg>